<mxfile host="app.diagrams.net" modified="2023-12-04T18:47:22.392Z" agent="Mozilla/5.0 (Windows NT 10.0; Win64; x64) AppleWebKit/537.36 (KHTML, like Gecko) Chrome/119.0.0.0 Safari/537.36" etag="5veg8D85ReupLNc46Pko" version="22.1.5" type="onedrive">
  <diagram name="Page-1" id="mNCs92s4eIvBYZ3xVJes">
    <mxGraphModel grid="1" page="1" gridSize="10" guides="1" tooltips="1" connect="1" arrows="1" fold="1" pageScale="1" pageWidth="827" pageHeight="1169" math="0" shadow="0">
      <root>
        <mxCell id="0" />
        <mxCell id="1" parent="0" />
        <mxCell id="vG7acSbbD-sMRZvfh3qH-32" style="edgeStyle=orthogonalEdgeStyle;rounded=0;orthogonalLoop=1;jettySize=auto;html=1;exitX=0.5;exitY=1;exitDx=0;exitDy=0;entryX=0.5;entryY=0;entryDx=0;entryDy=0;" edge="1" parent="1" source="vG7acSbbD-sMRZvfh3qH-33" target="vG7acSbbD-sMRZvfh3qH-41">
          <mxGeometry relative="1" as="geometry" />
        </mxCell>
        <mxCell id="vG7acSbbD-sMRZvfh3qH-33" value="&lt;div style=&quot;color: rgb(56, 58, 66); font-family: Consolas, &amp;quot;Courier New&amp;quot;, monospace; font-size: 14px; line-height: 19px;&quot;&gt;&lt;div style=&quot;line-height: 19px;&quot;&gt;0x1520_decryptData(arrayOfResults)&lt;/div&gt;&lt;/div&gt;" style="rounded=0;whiteSpace=wrap;html=1;fillColor=#dae8fc;strokeColor=#6c8ebf;" vertex="1" parent="1">
          <mxGeometry x="-927.5" y="630" width="270" height="60" as="geometry" />
        </mxCell>
        <mxCell id="vG7acSbbD-sMRZvfh3qH-34" style="edgeStyle=orthogonalEdgeStyle;rounded=0;orthogonalLoop=1;jettySize=auto;html=1;exitX=0.5;exitY=1;exitDx=0;exitDy=0;entryX=0.5;entryY=0;entryDx=0;entryDy=0;" edge="1" parent="1" source="vG7acSbbD-sMRZvfh3qH-35" target="vG7acSbbD-sMRZvfh3qH-37">
          <mxGeometry relative="1" as="geometry" />
        </mxCell>
        <mxCell id="vG7acSbbD-sMRZvfh3qH-35" value="&lt;div style=&quot;color: rgb(56, 58, 66); font-family: Consolas, &amp;quot;Courier New&amp;quot;, monospace; font-size: 14px; line-height: 19px;&quot;&gt;&lt;div style=&quot;text-align: center;&quot;&gt;&lt;span style=&quot;background-color: initial;&quot;&gt;size &lt;/span&gt;&lt;span style=&quot;background-color: initial; color: rgb(166, 38, 164);&quot;&gt;=&lt;/span&gt;&lt;span style=&quot;background-color: initial;&quot;&gt; ([&lt;/span&gt;&lt;span style=&quot;background-color: initial; color: rgb(152, 104, 1);&quot;&gt;0x0414a78&lt;/span&gt;&lt;span style=&quot;background-color: initial;&quot;&gt; &lt;/span&gt;&lt;span style=&quot;background-color: initial; color: rgb(166, 38, 164);&quot;&gt;+&lt;/span&gt;&lt;span style=&quot;background-color: initial;&quot;&gt; count1 &lt;/span&gt;&lt;span style=&quot;background-color: initial; color: rgb(166, 38, 164);&quot;&gt;*&lt;/span&gt;&lt;span style=&quot;background-color: initial;&quot;&gt; &lt;/span&gt;&lt;span style=&quot;background-color: initial; color: rgb(152, 104, 1);&quot;&gt;0xc&lt;/span&gt;&lt;span style=&quot;background-color: initial;&quot;&gt;] &lt;/span&gt;&lt;span style=&quot;background-color: initial; color: rgb(166, 38, 164);&quot;&gt;^&lt;/span&gt;&lt;span style=&quot;background-color: initial;&quot;&gt;&amp;nbsp;[&lt;/span&gt;&lt;span style=&quot;background-color: initial; color: rgb(152, 104, 1);&quot;&gt;0x0414a70&lt;/span&gt;&lt;span style=&quot;background-color: initial;&quot;&gt; &lt;/span&gt;&lt;span style=&quot;background-color: initial; color: rgb(166, 38, 164);&quot;&gt;+&lt;/span&gt;&lt;span style=&quot;background-color: initial;&quot;&gt; count1 &lt;/span&gt;&lt;span style=&quot;background-color: initial; color: rgb(166, 38, 164);&quot;&gt;*&lt;/span&gt;&lt;span style=&quot;background-color: initial;&quot;&gt; &lt;/span&gt;&lt;span style=&quot;background-color: initial; color: rgb(152, 104, 1);&quot;&gt;0xc&lt;/span&gt;&lt;span style=&quot;background-color: initial;&quot;&gt;])&lt;/span&gt;&lt;/div&gt;&lt;div style=&quot;text-align: center;&quot;&gt;totalSize &lt;span style=&quot;color: #a626a4;&quot;&gt;=&lt;/span&gt; size &lt;span style=&quot;color: #a626a4;&quot;&gt;+&lt;/span&gt; totalSize&lt;/div&gt;&lt;div style=&quot;text-align: center;&quot;&gt;&lt;span style=&quot;background-color: initial;&quot;&gt;count1&lt;/span&gt;&lt;span style=&quot;background-color: initial; color: rgb(166, 38, 164);&quot;&gt;+=&lt;/span&gt;&lt;span style=&quot;background-color: initial; color: rgb(152, 104, 1);&quot;&gt;1&lt;/span&gt;&lt;br&gt;&lt;/div&gt;&lt;/div&gt;" style="rounded=1;whiteSpace=wrap;html=1;align=left;" vertex="1" parent="1">
          <mxGeometry x="-1039.3799999999999" y="830" width="493.75" height="90" as="geometry" />
        </mxCell>
        <mxCell id="vG7acSbbD-sMRZvfh3qH-36" style="edgeStyle=orthogonalEdgeStyle;rounded=0;orthogonalLoop=1;jettySize=auto;html=1;exitX=0.5;exitY=1;exitDx=0;exitDy=0;entryX=0.5;entryY=0;entryDx=0;entryDy=0;" edge="1" parent="1" source="vG7acSbbD-sMRZvfh3qH-37" target="vG7acSbbD-sMRZvfh3qH-39">
          <mxGeometry relative="1" as="geometry" />
        </mxCell>
        <mxCell id="vG7acSbbD-sMRZvfh3qH-37" value="&lt;div style=&quot;color: rgb(56, 58, 66); font-family: Consolas, &amp;quot;Courier New&amp;quot;, monospace; font-size: 14px; line-height: 19px;&quot;&gt;&lt;div style=&quot;&quot;&gt;VirtualAlloc = &lt;span style=&quot;color: rgb(0, 0, 0);&quot;&gt;0x2050_findKernel32FuncAddr&lt;/span&gt;(&quot;&lt;span style=&quot;color: rgb(80, 161, 79);&quot;&gt;VirtualAlloc&quot;&lt;/span&gt;)&lt;/div&gt;&lt;/div&gt;" style="rounded=1;whiteSpace=wrap;html=1;align=center;" vertex="1" parent="1">
          <mxGeometry x="-1020" y="971" width="455" height="60" as="geometry" />
        </mxCell>
        <mxCell id="vG7acSbbD-sMRZvfh3qH-38" style="edgeStyle=orthogonalEdgeStyle;rounded=0;orthogonalLoop=1;jettySize=auto;html=1;exitX=0.5;exitY=1;exitDx=0;exitDy=0;entryX=0.5;entryY=0;entryDx=0;entryDy=0;" edge="1" parent="1" source="vG7acSbbD-sMRZvfh3qH-39" target="vG7acSbbD-sMRZvfh3qH-45">
          <mxGeometry relative="1" as="geometry" />
        </mxCell>
        <mxCell id="vG7acSbbD-sMRZvfh3qH-39" value="&lt;div style=&quot;color: rgb(56, 58, 66); font-family: Consolas, &amp;quot;Courier New&amp;quot;, monospace; font-size: 14px; line-height: 19px;&quot;&gt;&lt;div style=&quot;line-height: 19px;&quot;&gt;&lt;div style=&quot;&quot;&gt;&lt;div style=&quot;line-height: 19px;&quot;&gt;&lt;div style=&quot;&quot;&gt;&lt;span style=&quot;background-color: initial;&quot;&gt;newRWMem &lt;/span&gt;&lt;span style=&quot;background-color: initial; color: rgb(166, 38, 164);&quot;&gt;=&lt;/span&gt;&lt;span style=&quot;background-color: initial;&quot;&gt; &lt;/span&gt;&lt;span style=&quot;background-color: initial; color: rgb(64, 120, 242);&quot;&gt;VirtualAlloc&lt;/span&gt;&lt;span style=&quot;background-color: initial;&quot;&gt;(&lt;/span&gt;&lt;span style=&quot;background-color: initial; color: rgb(152, 104, 1);&quot;&gt;NULL&lt;/span&gt;&lt;span style=&quot;background-color: initial;&quot;&gt;, totalSize,MEM_COMMIT,PAGE_READWRITE)&lt;/span&gt;&lt;br&gt;&lt;/div&gt;&lt;div style=&quot;&quot;&gt;count2&lt;span style=&quot;color: #a626a4;&quot;&gt;=&lt;/span&gt;&lt;span style=&quot;color: #986801;&quot;&gt;0&lt;/span&gt;&lt;/div&gt;&lt;/div&gt;&lt;/div&gt;&lt;/div&gt;&lt;/div&gt;" style="rounded=1;whiteSpace=wrap;html=1;fontSize=16;align=center;" vertex="1" parent="1">
          <mxGeometry x="-1066.25" y="1068.5" width="547.5" height="49.5" as="geometry" />
        </mxCell>
        <mxCell id="vG7acSbbD-sMRZvfh3qH-40" style="edgeStyle=orthogonalEdgeStyle;rounded=0;orthogonalLoop=1;jettySize=auto;html=1;exitX=0.5;exitY=1;exitDx=0;exitDy=0;entryX=0.5;entryY=0;entryDx=0;entryDy=0;" edge="1" parent="1" source="vG7acSbbD-sMRZvfh3qH-41" target="vG7acSbbD-sMRZvfh3qH-35">
          <mxGeometry relative="1" as="geometry" />
        </mxCell>
        <mxCell id="vG7acSbbD-sMRZvfh3qH-41" value="&lt;div style=&quot;color: rgb(56, 58, 66); font-family: Consolas, &amp;quot;Courier New&amp;quot;, monospace; font-size: 14px; line-height: 19px;&quot;&gt;&lt;div style=&quot;&quot;&gt;count1=&lt;span style=&quot;color: rgb(152, 104, 1);&quot;&gt;0&lt;/span&gt;&lt;/div&gt;&lt;div style=&quot;&quot;&gt;totalSize &lt;span style=&quot;color: #a626a4;&quot;&gt;=&lt;/span&gt; &lt;span style=&quot;color: #986801;&quot;&gt;0&lt;/span&gt;&lt;/div&gt;&lt;div style=&quot;&quot;&gt;totalSize2 &lt;span style=&quot;color: rgb(166, 38, 164);&quot;&gt;=&lt;/span&gt; &lt;span style=&quot;color: rgb(152, 104, 1);&quot;&gt;0&lt;/span&gt;&lt;/div&gt;&lt;/div&gt;" style="rounded=1;whiteSpace=wrap;html=1;" vertex="1" parent="1">
          <mxGeometry x="-852.5" y="710" width="120" height="60" as="geometry" />
        </mxCell>
        <mxCell id="vG7acSbbD-sMRZvfh3qH-42" style="edgeStyle=orthogonalEdgeStyle;rounded=0;orthogonalLoop=1;jettySize=auto;html=1;exitX=0.5;exitY=1;exitDx=0;exitDy=0;entryX=0.5;entryY=0;entryDx=0;entryDy=0;" edge="1" parent="1" source="vG7acSbbD-sMRZvfh3qH-35" target="vG7acSbbD-sMRZvfh3qH-35">
          <mxGeometry relative="1" as="geometry">
            <Array as="points">
              <mxPoint x="-792" y="940" />
              <mxPoint x="-530" y="940" />
              <mxPoint x="-530" y="810" />
              <mxPoint x="-792" y="810" />
            </Array>
          </mxGeometry>
        </mxCell>
        <mxCell id="vG7acSbbD-sMRZvfh3qH-43" value="&lt;span style=&quot;border-color: var(--border-color); font-family: Consolas, &amp;quot;Courier New&amp;quot;, monospace; font-size: 14px; text-align: left; background-color: initial; color: rgb(166, 38, 164);&quot;&gt;count1&amp;lt;&lt;/span&gt;&lt;span style=&quot;border-color: var(--border-color); font-family: Consolas, &amp;quot;Courier New&amp;quot;, monospace; font-size: 14px; text-align: left; background-color: initial; color: rgb(152, 104, 1);&quot;&gt;0x44&lt;/span&gt;" style="edgeLabel;html=1;align=center;verticalAlign=middle;resizable=0;points=[];" connectable="0" vertex="1" parent="vG7acSbbD-sMRZvfh3qH-42">
          <mxGeometry x="0.623" relative="1" as="geometry">
            <mxPoint x="1" as="offset" />
          </mxGeometry>
        </mxCell>
        <mxCell id="vG7acSbbD-sMRZvfh3qH-44" style="edgeStyle=orthogonalEdgeStyle;rounded=0;orthogonalLoop=1;jettySize=auto;html=1;exitX=0.5;exitY=1;exitDx=0;exitDy=0;entryX=0.5;entryY=0;entryDx=0;entryDy=0;" edge="1" parent="1" source="vG7acSbbD-sMRZvfh3qH-45" target="vG7acSbbD-sMRZvfh3qH-48">
          <mxGeometry relative="1" as="geometry" />
        </mxCell>
        <mxCell id="vG7acSbbD-sMRZvfh3qH-45" value="&lt;div style=&quot;color: rgb(56, 58, 66); font-family: Consolas, &amp;quot;Courier New&amp;quot;, monospace; font-size: 14px; line-height: 19px;&quot;&gt;&lt;div style=&quot;&quot;&gt;size2 = ([&lt;span style=&quot;color: rgb(152, 104, 1);&quot;&gt;0x0414a78&lt;/span&gt; &lt;span style=&quot;color: rgb(166, 38, 164);&quot;&gt;+&lt;/span&gt; count2 &lt;span style=&quot;color: rgb(166, 38, 164);&quot;&gt;*&lt;/span&gt; &lt;span style=&quot;color: rgb(152, 104, 1);&quot;&gt;0xc&lt;/span&gt;] &lt;span style=&quot;color: rgb(166, 38, 164);&quot;&gt;^&lt;/span&gt; [&lt;span style=&quot;color: rgb(152, 104, 1);&quot;&gt;0x0414a70&lt;/span&gt; &lt;span style=&quot;color: rgb(166, 38, 164);&quot;&gt;+&lt;/span&gt; count2 &lt;span style=&quot;color: rgb(166, 38, 164);&quot;&gt;*&lt;/span&gt; &lt;span style=&quot;color: rgb(152, 104, 1);&quot;&gt;0xc&lt;/span&gt;])&lt;/div&gt;&lt;div style=&quot;&quot;&gt;memAddr &lt;span style=&quot;color: rgb(166, 38, 164);&quot;&gt;=&lt;/span&gt; ([&lt;span style=&quot;color: rgb(152, 104, 1);&quot;&gt;0x414a74&lt;/span&gt; &lt;span style=&quot;color: rgb(166, 38, 164);&quot;&gt;+&lt;/span&gt; count2 &lt;span style=&quot;color: rgb(166, 38, 164);&quot;&gt;*&lt;/span&gt; &lt;span style=&quot;color: rgb(152, 104, 1);&quot;&gt;0xc&lt;/span&gt;])&lt;/div&gt;&lt;/div&gt;" style="rounded=1;whiteSpace=wrap;html=1;" vertex="1" parent="1">
          <mxGeometry x="-1050.6299999999999" y="1168" width="516.25" height="50" as="geometry" />
        </mxCell>
        <mxCell id="vG7acSbbD-sMRZvfh3qH-46" style="edgeStyle=orthogonalEdgeStyle;rounded=0;orthogonalLoop=1;jettySize=auto;html=1;exitX=1;exitY=0.5;exitDx=0;exitDy=0;entryX=0;entryY=0.5;entryDx=0;entryDy=0;startArrow=block;startFill=0;" edge="1" parent="1" source="vG7acSbbD-sMRZvfh3qH-48" target="vG7acSbbD-sMRZvfh3qH-49">
          <mxGeometry relative="1" as="geometry">
            <mxPoint x="-30" y="1263.0000000000002" as="sourcePoint" />
          </mxGeometry>
        </mxCell>
        <mxCell id="vG7acSbbD-sMRZvfh3qH-47" style="edgeStyle=orthogonalEdgeStyle;rounded=0;orthogonalLoop=1;jettySize=auto;html=1;exitX=0.5;exitY=1;exitDx=0;exitDy=0;entryX=0.5;entryY=0;entryDx=0;entryDy=0;" edge="1" parent="1" source="vG7acSbbD-sMRZvfh3qH-48" target="vG7acSbbD-sMRZvfh3qH-59">
          <mxGeometry relative="1" as="geometry" />
        </mxCell>
        <mxCell id="vG7acSbbD-sMRZvfh3qH-48" value="&lt;div style=&quot;color: rgb(56, 58, 66); font-family: Consolas, &amp;quot;Courier New&amp;quot;, monospace; font-size: 14px; line-height: 19px;&quot;&gt;&lt;div style=&quot;&quot;&gt;0x3430_newMemcpy((newRWMem&lt;span style=&quot;color: rgb(166, 38, 164);&quot;&gt;+&lt;/span&gt;totalSize2),memAddr,size2)&lt;/div&gt;&lt;/div&gt;" style="rounded=1;whiteSpace=wrap;html=1;" vertex="1" parent="1">
          <mxGeometry x="-1001.25" y="1242" width="417.5" height="38" as="geometry" />
        </mxCell>
        <mxCell id="vG7acSbbD-sMRZvfh3qH-49" value="&lt;div style=&quot;color: rgb(56, 58, 66); font-family: Consolas, &amp;quot;Courier New&amp;quot;, monospace; font-size: 14px; line-height: 19px;&quot;&gt;0x3430_newMemcpy(dst,src,size)&lt;/div&gt;" style="rounded=0;whiteSpace=wrap;html=1;fillColor=#d5e8d4;strokeColor=#82b366;" vertex="1" parent="1">
          <mxGeometry x="-490.04" y="1240" width="250" height="42" as="geometry" />
        </mxCell>
        <mxCell id="vG7acSbbD-sMRZvfh3qH-50" style="edgeStyle=orthogonalEdgeStyle;rounded=0;orthogonalLoop=1;jettySize=auto;html=1;exitX=0.5;exitY=1;exitDx=0;exitDy=0;entryX=0.5;entryY=0;entryDx=0;entryDy=0;" edge="1" parent="1" source="vG7acSbbD-sMRZvfh3qH-49" target="vG7acSbbD-sMRZvfh3qH-52">
          <mxGeometry relative="1" as="geometry">
            <mxPoint x="-365.04" y="1328.5" as="sourcePoint" />
          </mxGeometry>
        </mxCell>
        <mxCell id="vG7acSbbD-sMRZvfh3qH-51" style="edgeStyle=orthogonalEdgeStyle;rounded=0;orthogonalLoop=1;jettySize=auto;html=1;exitX=0.5;exitY=1;exitDx=0;exitDy=0;entryX=0.5;entryY=0;entryDx=0;entryDy=0;" edge="1" parent="1" source="vG7acSbbD-sMRZvfh3qH-52" target="vG7acSbbD-sMRZvfh3qH-55">
          <mxGeometry relative="1" as="geometry" />
        </mxCell>
        <mxCell id="vG7acSbbD-sMRZvfh3qH-52" value="&lt;div style=&quot;color: rgb(56, 58, 66); font-family: Consolas, &amp;quot;Courier New&amp;quot;, monospace; font-size: 14px; line-height: 19px;&quot;&gt;&lt;div style=&quot;&quot;&gt;dl = [src&lt;span style=&quot;color: rgb(166, 38, 164);&quot;&gt;+&lt;/span&gt;count]&lt;/div&gt;&lt;div style=&quot;&quot;&gt;[dst&lt;span style=&quot;color: rgb(166, 38, 164);&quot;&gt;+&lt;/span&gt;count] &lt;span style=&quot;color: rgb(166, 38, 164);&quot;&gt;=&lt;/span&gt; dl&lt;/div&gt;&lt;/div&gt;" style="rounded=1;whiteSpace=wrap;html=1;" vertex="1" parent="1">
          <mxGeometry x="-435.04" y="1316.5" width="140" height="60" as="geometry" />
        </mxCell>
        <mxCell id="vG7acSbbD-sMRZvfh3qH-53" style="edgeStyle=orthogonalEdgeStyle;rounded=0;orthogonalLoop=1;jettySize=auto;html=1;exitX=0.5;exitY=1;exitDx=0;exitDy=0;entryX=0.5;entryY=0;entryDx=0;entryDy=0;" edge="1" parent="1" source="vG7acSbbD-sMRZvfh3qH-52" target="vG7acSbbD-sMRZvfh3qH-52">
          <mxGeometry relative="1" as="geometry">
            <Array as="points">
              <mxPoint x="-365" y="1390" />
              <mxPoint x="-570" y="1390" />
              <mxPoint x="-570" y="1296" />
              <mxPoint x="-365" y="1296" />
            </Array>
          </mxGeometry>
        </mxCell>
        <mxCell id="vG7acSbbD-sMRZvfh3qH-54" value="&lt;div style=&quot;color: rgb(56, 58, 66); font-family: Consolas, &amp;quot;Courier New&amp;quot;, monospace; font-size: 14px; line-height: 19px;&quot;&gt;for count in &lt;span style=&quot;color: rgb(64, 120, 242);&quot;&gt;range&lt;/span&gt;(size)&lt;/div&gt;" style="edgeLabel;html=1;align=center;verticalAlign=middle;resizable=0;points=[];" connectable="0" vertex="1" parent="vG7acSbbD-sMRZvfh3qH-53">
          <mxGeometry x="0.6121" y="-3" relative="1" as="geometry">
            <mxPoint x="-17" y="-2" as="offset" />
          </mxGeometry>
        </mxCell>
        <mxCell id="vG7acSbbD-sMRZvfh3qH-55" value="&lt;div style=&quot;color: rgb(56, 58, 66); font-family: Consolas, &amp;quot;Courier New&amp;quot;, monospace; font-size: 14px; line-height: 19px;&quot;&gt;&lt;div style=&quot;&quot;&gt;&lt;span style=&quot;color: rgb(166, 38, 164);&quot;&gt;return&lt;/span&gt;&lt;br&gt;&lt;/div&gt;&lt;/div&gt;" style="rounded=1;whiteSpace=wrap;html=1;" vertex="1" parent="1">
          <mxGeometry x="-397.54" y="1410" width="65" height="18" as="geometry" />
        </mxCell>
        <mxCell id="vG7acSbbD-sMRZvfh3qH-56" style="edgeStyle=orthogonalEdgeStyle;rounded=0;orthogonalLoop=1;jettySize=auto;html=1;exitX=0.5;exitY=1;exitDx=0;exitDy=0;entryX=0.5;entryY=0;entryDx=0;entryDy=0;" edge="1" parent="1" source="vG7acSbbD-sMRZvfh3qH-59" target="vG7acSbbD-sMRZvfh3qH-45">
          <mxGeometry relative="1" as="geometry">
            <Array as="points">
              <mxPoint x="-792" y="1361" />
              <mxPoint x="-1060" y="1361" />
              <mxPoint x="-1060" y="1148" />
              <mxPoint x="-792" y="1148" />
            </Array>
          </mxGeometry>
        </mxCell>
        <mxCell id="vG7acSbbD-sMRZvfh3qH-57" value="&lt;div style=&quot;color: rgb(56, 58, 66); font-family: Consolas, &amp;quot;Courier New&amp;quot;, monospace; font-size: 14px; line-height: 19px;&quot;&gt;&lt;div style=&quot;background-color: rgb(250, 250, 250);&quot;&gt;&lt;/div&gt;&lt;div style=&quot;&quot;&gt;count2&lt;span style=&quot;color: rgb(166, 38, 164);&quot;&gt;&amp;lt;&lt;/span&gt;&lt;span style=&quot;color: rgb(152, 104, 1);&quot;&gt;0x44&lt;/span&gt;:&lt;/div&gt;&lt;/div&gt;" style="edgeLabel;html=1;align=center;verticalAlign=middle;resizable=0;points=[];" connectable="0" vertex="1" parent="vG7acSbbD-sMRZvfh3qH-56">
          <mxGeometry x="0.6265" y="3" relative="1" as="geometry">
            <mxPoint x="1" as="offset" />
          </mxGeometry>
        </mxCell>
        <mxCell id="vG7acSbbD-sMRZvfh3qH-58" style="edgeStyle=orthogonalEdgeStyle;rounded=0;orthogonalLoop=1;jettySize=auto;html=1;exitX=0.5;exitY=1;exitDx=0;exitDy=0;entryX=0.5;entryY=0;entryDx=0;entryDy=0;" edge="1" parent="1" source="vG7acSbbD-sMRZvfh3qH-59" target="vG7acSbbD-sMRZvfh3qH-62">
          <mxGeometry relative="1" as="geometry" />
        </mxCell>
        <mxCell id="vG7acSbbD-sMRZvfh3qH-59" value="&lt;div style=&quot;color: rgb(56, 58, 66); font-family: Consolas, &amp;quot;Courier New&amp;quot;, monospace; font-size: 14px; line-height: 19px;&quot;&gt;&lt;div style=&quot;&quot;&gt;totalSize2 = size2 &lt;span style=&quot;color: rgb(166, 38, 164);&quot;&gt;+&lt;/span&gt; totalSize2&lt;/div&gt;&lt;div style=&quot;&quot;&gt;count2&lt;span style=&quot;color: rgb(166, 38, 164);&quot;&gt;+=&lt;/span&gt;&lt;span style=&quot;color: rgb(152, 104, 1);&quot;&gt;1&lt;/span&gt;&lt;/div&gt;&lt;/div&gt;" style="rounded=1;whiteSpace=wrap;html=1;" vertex="1" parent="1">
          <mxGeometry x="-913.75" y="1297" width="242.5" height="44" as="geometry" />
        </mxCell>
        <mxCell id="vG7acSbbD-sMRZvfh3qH-60" style="edgeStyle=orthogonalEdgeStyle;rounded=0;orthogonalLoop=1;jettySize=auto;html=1;exitX=0;exitY=0.5;exitDx=0;exitDy=0;entryX=1;entryY=0.5;entryDx=0;entryDy=0;startArrow=block;startFill=0;" edge="1" parent="1" source="vG7acSbbD-sMRZvfh3qH-62" target="vG7acSbbD-sMRZvfh3qH-64">
          <mxGeometry relative="1" as="geometry">
            <Array as="points">
              <mxPoint x="-1080" y="1396" />
              <mxPoint x="-1195" y="1395" />
            </Array>
          </mxGeometry>
        </mxCell>
        <mxCell id="vG7acSbbD-sMRZvfh3qH-61" style="edgeStyle=orthogonalEdgeStyle;rounded=0;orthogonalLoop=1;jettySize=auto;html=1;exitX=0.5;exitY=1;exitDx=0;exitDy=0;entryX=0.5;entryY=0;entryDx=0;entryDy=0;" edge="1" parent="1" source="vG7acSbbD-sMRZvfh3qH-62" target="vG7acSbbD-sMRZvfh3qH-72">
          <mxGeometry relative="1" as="geometry" />
        </mxCell>
        <mxCell id="vG7acSbbD-sMRZvfh3qH-62" value="&lt;div style=&quot;color: rgb(56, 58, 66); font-family: Consolas, &amp;quot;Courier New&amp;quot;, monospace; font-size: 14px; line-height: 19px;&quot;&gt;&lt;div style=&quot;&quot;&gt;0x1990_decryptFunc(newRWMem,newRWMem, totalSize)&lt;/div&gt;&lt;/div&gt;" style="rounded=1;whiteSpace=wrap;html=1;" vertex="1" parent="1">
          <mxGeometry x="-982.5" y="1381" width="380" height="29" as="geometry" />
        </mxCell>
        <mxCell id="vG7acSbbD-sMRZvfh3qH-63" style="edgeStyle=orthogonalEdgeStyle;rounded=0;orthogonalLoop=1;jettySize=auto;html=1;exitX=0.5;exitY=1;exitDx=0;exitDy=0;entryX=0.5;entryY=0;entryDx=0;entryDy=0;" edge="1" parent="1" source="vG7acSbbD-sMRZvfh3qH-64" target="vG7acSbbD-sMRZvfh3qH-66">
          <mxGeometry relative="1" as="geometry" />
        </mxCell>
        <mxCell id="vG7acSbbD-sMRZvfh3qH-64" value="&lt;div style=&quot;color: rgb(56, 58, 66); font-family: Consolas, &amp;quot;Courier New&amp;quot;, monospace; font-size: 14px; line-height: 19px;&quot;&gt;&lt;div style=&quot;&quot;&gt;0x1990_decryptFunc(mem1,mem2,size)&lt;/div&gt;&lt;div style=&quot;background-color: rgb(250, 250, 250);&quot;&gt;&lt;/div&gt;&lt;/div&gt;" style="rounded=0;whiteSpace=wrap;html=1;fillColor=#e1d5e7;strokeColor=#9673a6;" vertex="1" parent="1">
          <mxGeometry x="-1475" y="1379.5" width="280" height="32.25" as="geometry" />
        </mxCell>
        <mxCell id="vG7acSbbD-sMRZvfh3qH-65" style="edgeStyle=orthogonalEdgeStyle;rounded=0;orthogonalLoop=1;jettySize=auto;html=1;exitX=0.5;exitY=1;exitDx=0;exitDy=0;entryX=0.5;entryY=0;entryDx=0;entryDy=0;" edge="1" parent="1" source="vG7acSbbD-sMRZvfh3qH-66" target="vG7acSbbD-sMRZvfh3qH-68">
          <mxGeometry relative="1" as="geometry" />
        </mxCell>
        <mxCell id="vG7acSbbD-sMRZvfh3qH-66" value="&lt;div style=&quot;color: rgb(56, 58, 66); font-family: Consolas, &amp;quot;Courier New&amp;quot;, monospace; font-size: 14px; line-height: 19px;&quot;&gt;&lt;div style=&quot;&quot;&gt;destArr = &lt;span style=&quot;color: rgb(166, 38, 164);&quot;&gt;[]&lt;/span&gt;&lt;/div&gt;&lt;div style=&quot;&quot;&gt;&lt;span style=&quot;color: #4078f2;&quot;&gt;memcpy&lt;/span&gt;(&lt;span style=&quot;color: #a626a4;&quot;&gt;&amp;amp;&lt;/span&gt;destArr,&lt;span style=&quot;color: #a626a4;&quot;&gt;&amp;amp;&lt;/span&gt;DAT_004050cc,&lt;span style=&quot;color: #986801;&quot;&gt;0x80&lt;/span&gt;);&lt;/div&gt;&lt;div style=&quot;&quot;&gt;count1&lt;span style=&quot;color: rgb(166, 38, 164);&quot;&gt;=&lt;/span&gt;&lt;span style=&quot;color: rgb(152, 104, 1);&quot;&gt;0&lt;/span&gt;&lt;/div&gt;&lt;/div&gt;" style="rounded=1;whiteSpace=wrap;html=1;" vertex="1" parent="1">
          <mxGeometry x="-1480" y="1440.12" width="290" height="60" as="geometry" />
        </mxCell>
        <mxCell id="vG7acSbbD-sMRZvfh3qH-67" style="edgeStyle=orthogonalEdgeStyle;rounded=0;orthogonalLoop=1;jettySize=auto;html=1;exitX=0.5;exitY=1;exitDx=0;exitDy=0;entryX=0.5;entryY=0;entryDx=0;entryDy=0;" edge="1" parent="1" source="vG7acSbbD-sMRZvfh3qH-68" target="vG7acSbbD-sMRZvfh3qH-71">
          <mxGeometry relative="1" as="geometry" />
        </mxCell>
        <mxCell id="vG7acSbbD-sMRZvfh3qH-68" value="&lt;div style=&quot;color: rgb(56, 58, 66); font-family: Consolas, &amp;quot;Courier New&amp;quot;, monospace; font-size: 14px; line-height: 19px;&quot;&gt;&lt;div style=&quot;&quot;&gt;&amp;nbsp;incOffset = &lt;span style=&quot;color: rgb(228, 86, 73);&quot;&gt;destArr&lt;/span&gt;[count1&lt;span style=&quot;color: rgb(166, 38, 164);&quot;&gt;*&lt;/span&gt;&lt;span style=&quot;color: rgb(152, 104, 1);&quot;&gt;4&lt;/span&gt;]&lt;/div&gt;&lt;div style=&quot;&quot;&gt;&lt;span style=&quot;color: #a626a4;&quot;&gt;&amp;nbsp;if&lt;/span&gt; incOffset&lt;span style=&quot;color: #a626a4;&quot;&gt;&amp;lt;&lt;/span&gt;&lt;span style=&quot;color: #0184bc;&quot;&gt;Size&lt;/span&gt;:&lt;/div&gt;&lt;div style=&quot;&quot;&gt;&amp;nbsp; &amp;nbsp; currVal &lt;span style=&quot;color: #a626a4;&quot;&gt;=&lt;/span&gt; [&lt;span style=&quot;color: #986801;&quot;&gt;0x405159&lt;/span&gt; &lt;span style=&quot;color: #a626a4;&quot;&gt;+&lt;/span&gt; (incOffset &lt;span style=&quot;color: #a626a4;&quot;&gt;&amp;amp;&lt;/span&gt; &lt;span style=&quot;color: #986801;&quot;&gt;0x1F&lt;/span&gt;)]&lt;/div&gt;&lt;div style=&quot;&quot;&gt;&amp;nbsp; &amp;nbsp; newRWMemAddr &lt;span style=&quot;color: #a626a4;&quot;&gt;=&lt;/span&gt; mem2&lt;span style=&quot;color: #a626a4;&quot;&gt;+&lt;/span&gt;incOffset&lt;/div&gt;&lt;div style=&quot;&quot;&gt;&amp;nbsp; &amp;nbsp; newRWMemVal &lt;span style=&quot;color: #a626a4;&quot;&gt;=&lt;/span&gt; [newRWMemAddr]&lt;/div&gt;&lt;div style=&quot;&quot;&gt;&amp;nbsp; &amp;nbsp; subtrVals &lt;span style=&quot;color: #a626a4;&quot;&gt;=&lt;/span&gt; newRWMemVal &lt;span style=&quot;color: #a626a4;&quot;&gt;-&lt;/span&gt; currVal&lt;/div&gt;&lt;div style=&quot;&quot;&gt;&amp;nbsp; &amp;nbsp; [mem1&lt;span style=&quot;color: #a626a4;&quot;&gt;+&lt;/span&gt;incOffset] &lt;span style=&quot;color: #a626a4;&quot;&gt;=&lt;/span&gt; subtrVals&lt;/div&gt;&lt;div style=&quot;&quot;&gt;&amp;nbsp; &amp;nbsp; incOffset&lt;span style=&quot;color: #a626a4;&quot;&gt;+=&lt;/span&gt;&lt;span style=&quot;color: #986801;&quot;&gt;0x20&lt;/span&gt;&lt;/div&gt;&lt;div style=&quot;&quot;&gt;&lt;span style=&quot;color: #a626a4;&quot;&gt;&amp;nbsp;else&lt;/span&gt;:&lt;/div&gt;&lt;div style=&quot;&quot;&gt;&amp;nbsp; &amp;nbsp; count&lt;span style=&quot;color: rgb(166, 38, 164);&quot;&gt;+=&lt;/span&gt;&lt;span style=&quot;color: rgb(152, 104, 1);&quot;&gt;1&lt;/span&gt;&lt;/div&gt;&lt;/div&gt;" style="rounded=1;whiteSpace=wrap;html=1;align=left;" vertex="1" parent="1">
          <mxGeometry x="-1510" y="1540.12" width="350" height="218" as="geometry" />
        </mxCell>
        <mxCell id="vG7acSbbD-sMRZvfh3qH-69" style="edgeStyle=orthogonalEdgeStyle;rounded=0;orthogonalLoop=1;jettySize=auto;html=1;exitX=0.5;exitY=1;exitDx=0;exitDy=0;entryX=0.5;entryY=0;entryDx=0;entryDy=0;" edge="1" parent="1" source="vG7acSbbD-sMRZvfh3qH-68" target="vG7acSbbD-sMRZvfh3qH-68">
          <mxGeometry relative="1" as="geometry">
            <Array as="points">
              <mxPoint x="-1335" y="1777.81" />
              <mxPoint x="-1540" y="1777.81" />
              <mxPoint x="-1540" y="1519.81" />
              <mxPoint x="-1335" y="1519.81" />
            </Array>
          </mxGeometry>
        </mxCell>
        <mxCell id="vG7acSbbD-sMRZvfh3qH-70" value="&lt;div style=&quot;color: rgb(56, 58, 66); font-family: Consolas, &amp;quot;Courier New&amp;quot;, monospace; font-size: 14px; line-height: 19px;&quot;&gt;&lt;div style=&quot;background-color: rgb(250, 250, 250);&quot;&gt;&lt;/div&gt;&lt;div style=&quot;&quot;&gt;count1&lt;span style=&quot;color: rgb(166, 38, 164);&quot;&gt;&amp;lt;&lt;/span&gt;&lt;span style=&quot;color: rgb(152, 104, 1);&quot;&gt;0x20&lt;/span&gt;:&lt;/div&gt;&lt;/div&gt;" style="edgeLabel;html=1;align=center;verticalAlign=middle;resizable=0;points=[];" connectable="0" vertex="1" parent="vG7acSbbD-sMRZvfh3qH-69">
          <mxGeometry x="0.6609" relative="1" as="geometry">
            <mxPoint as="offset" />
          </mxGeometry>
        </mxCell>
        <mxCell id="vG7acSbbD-sMRZvfh3qH-71" value="&lt;div style=&quot;color: rgb(56, 58, 66); font-family: Consolas, &amp;quot;Courier New&amp;quot;, monospace; font-size: 14px; line-height: 19px;&quot;&gt;&lt;div style=&quot;&quot;&gt;&lt;span style=&quot;color: rgb(166, 38, 164);&quot;&gt;return&lt;/span&gt;&lt;br&gt;&lt;/div&gt;&lt;/div&gt;" style="rounded=1;whiteSpace=wrap;html=1;" vertex="1" parent="1">
          <mxGeometry x="-1367.5" y="1792.31" width="65" height="18" as="geometry" />
        </mxCell>
        <mxCell id="vG7acSbbD-sMRZvfh3qH-72" value="&lt;div style=&quot;color: rgb(56, 58, 66); font-family: Consolas, &amp;quot;Courier New&amp;quot;, monospace; font-size: 14px; line-height: 19px;&quot;&gt;&lt;div style=&quot;&quot;&gt;arrayOfResults[&lt;span style=&quot;color: rgb(152, 104, 1);&quot;&gt;0&lt;/span&gt;] &lt;span style=&quot;color: rgb(166, 38, 164);&quot;&gt;=&lt;/span&gt; newRWMem&lt;span style=&quot;color: rgb(166, 38, 164);&quot;&gt;+&lt;/span&gt;&lt;span style=&quot;color: rgb(152, 104, 1);&quot;&gt;0x940f&lt;/span&gt;&lt;/div&gt;&lt;div style=&quot;&quot;&gt;&lt;span style=&quot;color: #e45649;&quot;&gt;arrayOfResults&lt;/span&gt;[&lt;span style=&quot;color: #986801;&quot;&gt;1&lt;/span&gt;] &lt;span style=&quot;color: #a626a4;&quot;&gt;=&lt;/span&gt; &lt;span style=&quot;color: #986801;&quot;&gt;0x3f400&lt;/span&gt;&lt;/div&gt;&lt;div style=&quot;&quot;&gt;&lt;span style=&quot;color: #e45649;&quot;&gt;arrayOfResults&lt;/span&gt;[&lt;span style=&quot;color: #986801;&quot;&gt;2&lt;/span&gt;] &lt;span style=&quot;color: #a626a4;&quot;&gt;=&lt;/span&gt; newRWMem&lt;span style=&quot;color: #a626a4;&quot;&gt;+&lt;/span&gt;&lt;span style=&quot;color: #986801;&quot;&gt;0x6afb //New DOS header&lt;/span&gt;&lt;/div&gt;&lt;div style=&quot;&quot;&gt;&lt;span style=&quot;color: #e45649;&quot;&gt;arrayOfResults&lt;/span&gt;[&lt;span style=&quot;color: #986801;&quot;&gt;3&lt;/span&gt;] &lt;span style=&quot;color: #a626a4;&quot;&gt;=&lt;/span&gt; &lt;span style=&quot;color: #986801;&quot;&gt;0x2800&lt;/span&gt;&lt;/div&gt;&lt;div style=&quot;&quot;&gt;&lt;span style=&quot;color: rgb(166, 38, 164);&quot;&gt;return&lt;/span&gt;&lt;/div&gt;&lt;/div&gt;" style="rounded=1;whiteSpace=wrap;html=1;" vertex="1" parent="1">
          <mxGeometry x="-1021.25" y="1441" width="457.5" height="150" as="geometry" />
        </mxCell>
        <mxCell id="vG7acSbbD-sMRZvfh3qH-73" style="edgeStyle=orthogonalEdgeStyle;rounded=0;orthogonalLoop=1;jettySize=auto;html=1;entryX=1;entryY=0.5;entryDx=0;entryDy=0;startArrow=block;startFill=0;" edge="1" parent="1">
          <mxGeometry relative="1" as="geometry">
            <Array as="points">
              <mxPoint x="-270" y="660" />
            </Array>
            <mxPoint x="-170" y="660" as="sourcePoint" />
            <mxPoint x="-657" y="660" as="targetPoint" />
          </mxGeometry>
        </mxCell>
        <mxCell id="vG7acSbbD-sMRZvfh3qH-74" value="" style="endArrow=classic;html=1;rounded=0;exitX=1;exitY=0.5;exitDx=0;exitDy=0;edgeStyle=orthogonalEdgeStyle;startArrow=block;startFill=0;" edge="1" parent="1">
          <mxGeometry width="50" height="50" relative="1" as="geometry">
            <mxPoint x="-565" y="1001" as="sourcePoint" />
            <mxPoint x="-180" y="990" as="targetPoint" />
            <Array as="points">
              <mxPoint x="-180" y="1001" />
            </Array>
          </mxGeometry>
        </mxCell>
      </root>
    </mxGraphModel>
  </diagram>
</mxfile>
